<?xml version="1.0" standalone="no"?><!DOCTYPE svg PUBLIC "-//W3C//DTD SVG 1.1//EN" "http://www.w3.org/Graphics/SVG/1.1/DTD/svg11.dtd"><svg t="1529478990607" class="icon" style="" viewBox="0 0 1024 1024" version="1.1" xmlns="http://www.w3.org/2000/svg" p-id="1827" xmlns:xlink="http://www.w3.org/1999/xlink" width="200" height="200"><defs><style type="text/css"></style></defs><path d="M516.736 297.557333a146.090667 146.090667 0 0 0-146.432 146.048 146.346667 146.346667 0 0 0 146.432 146.432 146.304 146.304 0 1 0 0-292.48z" p-id="1828"></path><path d="M512 0C229.248 0 0 229.248 0 512s229.248 512 512 512 512-229.248 512-512S794.752 0 512 0z m41.130667 788.181333l-4.224 4.224a48.682667 48.682667 0 0 1-68.650667-4.224c-63.744-81.962667-187.733333-253.568-187.733333-345.301333a223.744 223.744 0 0 1 224.128-223.445333 223.957333 223.957333 0 0 1 224.128 223.445333c0.085333 92.117333-123.904 263.338667-187.648 345.301333z" p-id="1829"></path></svg>