<?xml version="1.0" encoding="utf-8"?>
<!-- Generator: Adobe Illustrator 21.0.0, SVG Export Plug-In . SVG Version: 6.00 Build 0)  -->
<svg version="1.1" id="图层_1" xmlns="http://www.w3.org/2000/svg" xmlns:xlink="http://www.w3.org/1999/xlink" x="0px" y="0px"
	 viewBox="0 0 200 200" style="enable-background:new 0 0 200 200;" xml:space="preserve">
<circle cx="-123.5" cy="50.6" r="34.6"/>
<path d="M-33.4,135.1H-37c-1.6,0-3.3-1.3-4-3l-2-4.9c-0.7-1.3-0.3-3.6,0.7-4.6l2.6-2.6c1.3-1.3,1.3-3,0-4.3l-4.3-4.3
	c-1.3-1.3-3-1.3-4.3,0l-2.6,2.6c-1.3,1.3-3.3,1.3-4.6,0.7l-4.9-2c-1.6-0.3-3-2.3-3-4v-3.6c0-1.6-1.3-3-3-3h-5.9c-1.6,0-3,1.3-3,3
	v3.6c0,1.6-1.3,3.3-3,4l-4.9,2c-1.3,0.7-3.6,0.3-4.6-0.7l-2.6-2.6c-1.3-1.3-3-1.3-4.3,0l-4.3,4.3c-1.3,1.3-1.3,3,0,4.3l2.6,2.6
	c1.3,1.3,1.3,3.3,0.7,4.6l-2,4.9c-0.3,1.6-2.3,3-4,3h-3.6c-1.6,0-3,1.3-3,3v5.9c0,1.6,1.3,3,3,3h3.6c1.6,0,3.3,1.3,4,3l2,4.9
	c0.7,1.3,0.3,3.6-0.7,4.6l-2.6,2.6c-1.3,1.3-1.3,3,0,4.3l4.3,4.3c1.3,1.3,3,1.3,4.3,0l2.6-2.6c1.3-1.3,3.3-1.3,4.6-0.7l4.9,2
	c1.6,0.3,3,2.3,3,4v3.6c0,1.6,1.3,3,3,3h5.9c1.6,0,3-1.3,3-3v-4.3c0-1.6,1.3-3.3,3-4l4.9-2c1.3-0.7,3.6-0.3,4.6,0.7l2.6,2.6
	c1.3,1.3,3,1.3,4.3,0l4.3-4.3c1.3-1.3,1.3-3,0-4.3l-2.6-2.6c-1.3-1.3-1.3-3.3-0.7-4.6l2-4.9c0.3-1.6,2.3-3,4-3h3.6c1.6,0,3-1.3,3-3
	v-5.9C-30.5,136.4-31.8,135.1-33.4,135.1z M-69,155.8c-8.2,0-14.8-6.6-14.8-14.8s6.6-14.8,14.8-14.8s14.8,6.6,14.8,14.8
	S-60.8,155.8-69,155.8z"/>
<path d="M-115.8,144.5c0-18.4,8.2-34.9,21.1-46c1.2-1,0.9-2.9-0.6-3.5c-8.7-3.2-18.1-5-27.9-5c-44.6,0-80.7,36.1-80.7,80.7
	c0,1.3,0,2.7,0.1,4c0.2,3,2.6,5.4,5.6,5.4h87.5c2.7,0,4.4-2.9,3.1-5.2C-112.8,166-115.8,155.6-115.8,144.5z"/>
<path d="M128.6,179.7c-34.8,0-69.6,0-104.4,0c-0.1-0.7-0.2-1.4-0.2-2.1c-1.3-15.4,1.5-30.1,8.8-43.8c6.8-12.9,16.4-23.1,28.8-30.7
	c8.7-5.3,18.2-8.8,28.3-10.4c12.9-2.1,25.6-1,38,3.2c0.9,0.3,0.8,0.2,0.8,1.2c0,0.7,0,1.5,0,2.2c0.1,2.7-1.3,4.4-3.6,5.5
	c-1.3,0.6-2.6,1.1-3.9,1.6c-0.8,0.3-1.5,0.7-2.3,0.9c-2.3,0.8-4.4,0.5-6.1-1.3c-0.9-0.9-1.8-1.8-2.7-2.7c-0.3-0.3-0.6-0.5-0.9-0.7
	c-1.2-0.8-2.5-0.8-3.7,0c-0.3,0.2-0.6,0.5-0.9,0.8c-1.7,1.6-3.3,3.3-4.9,4.9c-0.1,0.1-0.2,0.2-0.2,0.2c-1.6,1.7-1.6,3.5,0,5.2
	c1,1,2,2,3,3c1.8,1.6,2,4,1.2,5.9c-0.9,2.3-1.7,4.6-2.7,6.8c-0.8,2-2.5,3-4.6,3.1c-1.5,0.1-3,0-4.6,0c-1.5,0-2.6,0.6-3.3,2
	c-0.3,0.5-0.4,1.2-0.4,1.8c0,2.4,0,4.7,0,7.1c0,2.3,1.5,3.8,3.8,3.8c1.2,0,2.5,0,3.7,0c2.6-0.1,4.3,1.3,5.4,3.5
	c0.6,1.3,1.1,2.7,1.7,4.1c0.3,0.7,0.6,1.5,0.9,2.2c0.6,1.5,0.6,3,0,4.5c-0.2,0.5-0.6,1-1,1.5c-0.9,1-1.9,1.9-2.8,2.8
	c-0.2,0.2-0.4,0.4-0.6,0.6c-1.3,1.6-1.3,3.3,0.1,4.8c1.8,1.9,3.7,3.8,5.6,5.6c1.5,1.5,3.4,1.4,5-0.1c1-1,2-2,3-3
	c1.6-1.8,3.9-2.1,6-1.2c2.2,0.9,4.4,1.8,6.6,2.6C127.1,175.7,128.5,177.7,128.6,179.7z"/>
<path d="M101.3,19.5c18.6,0.1,33.8,15,33.8,33.8c0,18.8-15.2,33.8-33.9,33.8c-18.7,0-33.8-15.2-33.7-33.9
	C67.5,34.7,82.7,19.5,101.3,19.5z"/>
<path d="M143.2,106.5c0.9,0,1.8,0,2.8,0c1.5,0.1,2.6,1.1,2.7,2.7c0,1.1,0,2.2,0,3.3c0,1.2,0.5,2.2,1.4,3c0.3,0.2,0.6,0.4,0.9,0.6
	c1.7,0.7,3.4,1.3,5.1,2c1.6,0.6,3.1,0.5,4.3-0.9c0.6-0.6,1.2-1.2,1.8-1.8c0.2-0.2,0.5-0.5,0.7-0.7c1.1-0.9,2.4-0.8,3.4,0.1
	c0.6,0.5,1.1,1.1,1.6,1.6c0.8,0.8,1.6,1.6,2.4,2.4c1.5,1.5,1.5,2.9,0,4.4c-0.7,0.7-1.3,1.3-2,2c-1.2,1.2-1.4,2.6-0.9,4.1
	c0.6,1.7,1.2,3.4,2,5c0.8,1.7,2,2.6,4,2.6c0.9,0,1.8,0,2.8,0c0.7,0,1.4,0.2,2,0.7c0.6,0.5,0.9,1.1,0.9,1.9c0,1.6,0,3.2,0,4.8
	c0,1.9-1.1,3-3,3.1c-1,0-2.1,0-3.1,0c-1.5-0.1-3.2,1.3-3.6,2.6c-0.5,1.6-1.2,3.1-1.8,4.7c-0.3,0.8-0.5,1.6-0.3,2.5
	c0.1,0.6,0.4,1.2,0.9,1.6c0.7,0.7,1.3,1.3,2,2c0.1,0.1,0.2,0.2,0.2,0.2c1.5,1.6,1.5,2.9-0.1,4.5c-1.2,1.2-2.4,2.4-3.6,3.6
	c-0.6,0.6-1.3,1-2.2,0.9c-0.7-0.1-1.3-0.4-1.8-0.9c-0.7-0.7-1.5-1.5-2.2-2.2c-1.2-1.2-2.7-1.4-4.3-0.9c-1.6,0.6-3.2,1.2-4.7,1.9
	c-1.7,0.8-2.7,2-2.7,4c0,1.1,0,2.2,0,3.3c0,1.8-1.1,2.9-3,2.9c-1.7,0-3.4,0-5,0c-1.8,0-3.1-1.3-3-3c0-0.9,0-1.9,0-2.8
	c0-1.8-1.3-3.5-2.8-3.9c-1.5-0.4-3-1.1-4.5-1.8c-1.7-0.7-3.2-0.5-4.5,0.8c-0.7,0.7-1.4,1.4-2.1,2.1c-1.2,1.2-2.8,1.3-4,0.1
	c-1.3-1.3-2.7-2.6-4-4c-1.3-1.3-1.2-2.6,0-4c0.7-0.8,1.5-1.5,2.2-2.3c1.2-1.2,1.4-2.7,0.9-4.2c-0.6-1.6-1.2-3.1-1.9-4.7
	c-0.7-1.8-2.1-2.7-4.1-2.7c-1,0-2,0-3,0c-1.3,0-2.6-1.3-2.6-2.6c0-1.9,0-3.7,0-5.6c0-1.7,1.1-2.8,2.9-2.8c1,0,2,0,3,0
	c1.8,0,3.2-1,3.8-2.7c0.6-1.6,1.2-3.1,1.9-4.7c0.6-1.5,0.4-3-0.8-4.2c-0.7-0.7-1.5-1.5-2.2-2.2c-1.4-1.4-1.4-2.8,0-4.2
	c1.2-1.3,2.5-2.5,3.7-3.7c1.4-1.4,2.8-1.4,4.2,0c0.7,0.7,1.4,1.4,2.1,2.1c1.2,1.2,2.7,1.4,4.2,0.9c1.6-0.6,3.2-1.2,4.8-1.9
	c1.7-0.8,2.7-2.1,2.7-4.1c0-0.9,0-1.8,0-2.8c0-1.7,1.1-2.7,2.7-2.8C141.4,106.5,142.3,106.5,143.2,106.5
	C143.2,106.5,143.2,106.5,143.2,106.5z M143.5,155.8c7.5,0,13.6-6,13.6-13.5c0-7.6-6-13.6-13.5-13.7c-7.6,0-13.6,6-13.7,13.5
	C129.9,149.9,136.2,156,143.5,155.8z"/>
</svg>
