<?xml version="1.0" standalone="no"?><!DOCTYPE svg PUBLIC "-//W3C//DTD SVG 1.1//EN" "http://www.w3.org/Graphics/SVG/1.1/DTD/svg11.dtd"><svg t="1542704984714" class="icon" style="" viewBox="0 0 1024 1024" version="1.1" xmlns="http://www.w3.org/2000/svg" p-id="3717" xmlns:xlink="http://www.w3.org/1999/xlink" width="200" height="200"><defs><style type="text/css"></style></defs><path d="M960 32H64c-19.2 0-32 12.8-32 32v640c0 19.2 12.8 32 32 32h896c19.2 0 32-12.8 32-32V64c0-19.2-12.8-32-32-32z m-32 608H96V96h832v544zM800 896h-192v-128h-192v128H224c-19.2 0-32 12.8-32 32v32h640v-32c0-19.2-12.8-32-32-32z" p-id="3718" data-spm-anchor-id="a313x.7781069.0.i7" class="selected" fill="#ffffff"></path><path d="M284.8 499.2c28.8-16 41.6-48 32-76.8l70.4-54.4c9.6 6.4 19.2 6.4 28.8 6.4 12.8 0 25.6-3.2 35.2-9.6l48 48c-6.4 28.8 3.2 57.6 28.8 70.4 25.6 16 54.4 12.8 76.8-9.6 19.2-19.2 25.6-51.2 12.8-76.8L736 310.4c25.6 16 60.8 12.8 80-9.6 22.4-22.4 22.4-57.6 3.2-83.2s-51.2-32-80-19.2c-28.8 16-41.6 48-32 76.8l-124.8 96c-6.4-3.2-16-3.2-22.4-3.2-12.8 0-25.6 3.2-35.2 9.6l-48-48c6.4-25.6-3.2-54.4-25.6-70.4-22.4-16-54.4-12.8-76.8 3.2-22.4 19.2-28.8 48-19.2 73.6L288 387.2c-25.6-16-60.8-12.8-80 9.6-22.4 22.4-22.4 57.6-3.2 83.2s51.2 32 80 19.2z" p-id="3719" data-spm-anchor-id="a313x.7781069.0.i8" class="selected"></path></svg>