<?xml version="1.0" standalone="no"?><!DOCTYPE svg PUBLIC "-//W3C//DTD SVG 1.1//EN" "http://www.w3.org/Graphics/SVG/1.1/DTD/svg11.dtd"><svg t="1536740443434" class="icon" style="" viewBox="0 0 1024 1024" version="1.1" xmlns="http://www.w3.org/2000/svg" p-id="3458" xmlns:xlink="http://www.w3.org/1999/xlink" width="200" height="200"><defs><style type="text/css"></style></defs><path d="M512 0C229.222205 0 0 229.222205 0 512s229.222205 512 512 512 512-229.222205 512-512S794.777795 0 512 0z m2.982449 819.07346L248.292745 519.0473h135.29454V216.603255h268.233491V519.0473h134.151787L519.282859 819.07346h-4.30041z" fill="#FFFFFF" p-id="3459"></path><path d="M512 0C229.222205 0 0 229.222205 0 512s229.222205 512 512 512 512-229.222205 512-512S794.777795 0 512 0z m7.282859 819.07346h-4.30041L248.292745 519.0473h135.29454V216.603255h268.233491V519.0473h134.151787L519.282859 819.07346z" fill="#5596E6" p-id="3460"></path></svg>